<?xml version="1.0" encoding="utf-8"?>
<!-- Generator: Adobe Illustrator 16.0.0, SVG Export Plug-In . SVG Version: 6.00 Build 0)  -->
<!DOCTYPE svg PUBLIC "-//W3C//DTD SVG 1.1//EN" "http://www.w3.org/Graphics/SVG/1.1/DTD/svg11.dtd">
<svg version="1.1" id="Layer_1" xmlns="http://www.w3.org/2000/svg" xmlns:xlink="http://www.w3.org/1999/xlink" x="0px" y="0px"
	 width="600.166px" height="437.333px" viewBox="0 0 600.166 437.333" enable-background="new 0 0 600.166 437.333"
	 xml:space="preserve">
<g id="crâne">
	<g>
		<path fill="#FFFFFF" d="M359.306,196.063c0,0-13.698,1.712-16.78,9.588c-3.082,7.875-3.424,43.148-20.889,46.23
			s-35.96,4.795-46.917,0c-10.959-4.795-20.889-14.383-20.547-22.603c0.342-8.219-0.686-22.944-5.479-27.739
			c-4.793-4.794-13.354-8.219-13.354-8.219s-1.37,6.506-0.687,10.274c0.686,3.767,1.714,36.985,6.851,43.834
			s13.014,22.259,21.231,26.026c8.22,3.768,22.26,6.506,31.849,6.506c9.59,0,34.245,1.027,45.203-14.726
			c10.96-15.753,17.466-35.614,16.438-45.889c-1.027-10.274,3.426-7.877,3.769-10.959
			C360.332,205.308,361.361,196.063,359.306,196.063z"/>
		<polygon fill="#FFFFFF" points="314.785,238.185 309.992,238.87 310.677,249.143 313.759,249.143 317.867,246.061 
			317.867,241.267 		"/>
		<polygon fill="#FFFFFF" points="298.006,238.526 293.896,238.87 292.185,242.293 292.869,249.829 299.033,248.801 
			300.403,246.747 301.431,245.375 		"/>
		<polygon fill="#FFFFFF" points="285.677,237.842 279.855,238.185 280.54,245.034 284.992,248.801 287.731,244.006 		"/>
		<polygon fill="#FFFFFF" points="274.375,241.267 271.979,237.842 269.239,236.129 267.869,239.211 269.924,245.034 
			275.746,246.403 276.773,242.637 		"/>
		<polygon fill="#FFFFFF" points="271.293,220.719 267.184,214.213 268.211,211.815 269.239,207.364 275.403,207.706 
			276.43,214.213 276.773,220.034 		"/>
		<polygon fill="#FFFFFF" points="282.595,221.404 280.198,220.719 279.512,216.61 282.595,209.076 285.336,209.076 287.731,215.24 
			288.075,220.719 		"/>
		<polygon fill="#FFFFFF" points="293.555,222.088 290.13,215.583 293.555,209.076 299.033,209.076 299.376,215.24 299.719,221.062 
					"/>
		<polygon fill="#FFFFFF" points="304.17,222.432 304.855,208.733 308.965,209.076 311.361,215.24 311.361,221.404 		"/>
		<polygon fill="#FFFFFF" points="320.607,222.432 316.841,216.267 317.185,208.391 320.949,207.364 321.635,209.418 
			324.031,210.104 324.031,219.007 		"/>
		<path fill="#FFFFFF" d="M390.812,67.3c-0.445-1.74,1.724-4.2,1.37-6.164c-1.019-5.658-16.781-33.561-28.766-42.122
			c-11.987-8.561-31.768-17.502-35.617-17.807c-3.852-0.305-17.712-0.762-21.138-1.104c-3.426-0.343-14.478,0.077-29.544,2.816
			c-15.068,2.739-34.589,11.643-38.014,14.383c-3.424,2.74-11.985,11.301-11.985,11.301L226.776,31c0,0-6.85,6.164-14.383,19.178
			c-7.533,13.014-7.534,35.958-7.534,43.834c0,7.876,4.795,28.424,4.795,28.424l4.795,9.932h3.082L218.9,117.3
			c0,0-0.342-3.767-1.369-10.273c-1.027-6.506,0-19.52,3.082-30.479c3.082-10.958,6.85-14.725,11.986-21.917
			c5.137-7.191,9.589-11.643,9.589-11.643l2.538,1.447c0,0-3.909,8.484-5.278,11.567c-1.369,3.082-7.19,21.575-11.985,28.423
			c-4.794,6.849-2.055,45.204-2.397,49.313c-0.342,4.109-0.685,5.822-2.396,7.191c-1.712,1.37-11.753,4.501-13.015,5.137
			c-1.259,0.636-2.055,6.85-2.055,9.932s3.768,7.534,13.355,12.329c9.588,4.794,18.492,7.533,24.656,9.931
			c6.164,2.398,13.015,16.096,16.097,19.862c3.082,3.766,18.492,5.822,31.507,7.876c13.013,2.055,26.501-3.104,28.492-3.276
			c1.99-0.172,5.408,0.537,6.778,0.879c1.368,0.342,8.01-6.641,8.905-7.762s1.368-3.196,4.45-6.963s14.383-10.958,24.657-14.383
			c10.272-3.424,16.39-9.744,17.808-11.643c1.419-1.9,2.538-10.381,2.059-12.143c-0.366-1.348-3.521-3.202-6.241-4.161
			c-2.72-0.958-8.469-3.253-9.516-4.587c-1.048-1.334-1.185-6.145-1.527-10.938c-0.343-4.794,1.635-25.571,2.897-26.389
			c1.265-0.817,3.799,1.087,4.452,2.055c0.652,0.968,1.377,25.204,2.056,26.37c0.678,1.166,5.479-3.082,7.875-4.452
			s3.768-12.67,4.453-15.752c0.684-3.082,3.072-37.206,2.055-43.492C392.716,68.417,391.257,69.041,390.812,67.3z"/>
	</g>
</g>
<g id="sabre_B">
	<g>
		<path fill="#FFFFFF" d="M203.831,411.465c0,0,4.795,4.795,4.795,7.877s-6.507,13.016-20.205,13.355
			c-13.698,0.342-29.793-10.273-38.698-17.809c-8.904-7.533-11.301-21.23-11.643-26.368c-0.343-5.138,1.712-11.644-0.687-13.354
			c-2.396-1.713-17.123-16.098-19.178-21.918s-9.588-25.685-15.752-29.108c-6.164-3.425-13.355-4.45-13.698-6.849
			c-0.342-2.397,5.137-13.355,15.068-14.041s16.779,1.713,21.575,24.314c4.794,22.602,19.52,28.766,26.368,33.219
			c6.851,4.45,12.67,8.219,12.328,10.272c-0.342,2.055-3.767,12.672-3.082,18.149c0.687,5.479,7.192,20.547,16.097,22.602
			C186.024,413.864,192.872,407.698,203.831,411.465z"/>
		<path fill="#FFFFFF" d="M123.354,382.7c-1.954,1.952-16.438-0.344-22.602,0c-6.165,0.344-24.657,3.084-28.081-0.685
			s-6.506-11.302-7.191-14.041c-0.686-2.74-4.108-6.507,1.369-8.22c5.479-1.713,21.917-2.396,31.506-2.055
			s17.465,5.137,22.261,12.67C125.41,377.907,125.409,380.645,123.354,382.7z"/>
		<path fill="#FFFFFF" d="M70.273,388.864c-1.661,0.997-10.615,4.795-10.615,6.85s-6.164,4.107-3.768,6.506
			s9.588-1.025,11.301-3.082c1.713-2.055,4.795-7.19,5.479-8.561C73.354,389.208,71.985,387.836,70.273,388.864z"/>
		<path fill="#FFFFFF" d="M56.918,368.661c0.811,4.254,5.137,14.726,1.712,18.491c-3.425,3.767-11.301,8.218-17.465,3.767
			s-20.89-18.836-10.616-30.82s23.972-9.246,26.711-7.191c2.74,2.055,2.74,2.055,2.74,2.055s-2.397,3.769-2.74,5.822
			C56.918,362.838,55.547,361.467,56.918,368.661z"/>
		<path fill="#FFFFFF" d="M244.583,345.372c0,0-19.179,4.111-28.767,7.877c-9.588,3.768-31.506,10.959-41.095,8.562
			c-9.588-2.396-23.629-13.014-23.629-13.014s14.041-2.739,26.711-5.479c12.67-2.739,43.834-10.958,46.917-10.958
			s5.822,2.055,11.643,5.137C242.185,340.579,245.269,343.661,244.583,345.372z"/>
		<path fill="#FFFFFF" d="M260.678,350.167c-3.77-0.313-42.122,10.615-48.971,13.014c-6.851,2.398-30.137,6.165-33.903,9.59
			c-3.768,3.424-8.561,8.561-8.561,10.957c0,2.398,0.342,1.713,5.137,1.713c4.794,0,81.504-16.438,89.723-18.492
			c8.219-2.054,16.78-2.74,16.78-5.137s-2.74-3.083-8.562-5.822C266.5,353.249,264.787,350.51,260.678,350.167z"/>
		<path fill="#FFFFFF" d="M337.731,319.688c0,0,6.164,2.396,10.617,4.451c4.45,2.055,6.848,4.109,13.013,3.082
			c6.164-1.027,23.629-10.615,31.163-15.752c7.533-5.137,82.189-56.506,109.929-83.901c27.738-27.396,47.601-52.396,54.45-61.984
			c6.849-9.588,31.161-57.875,34.93-67.464c3.768-9.589,8.903-28.081,8.903-30.821c0-2.74-1.37-6.164-1.37-6.164
			s-24.998,33.218-31.506,41.094c-6.507,7.877-50.341,70.888-126.021,122.941c-75.685,52.054-107.529,68.834-114.38,71.572
			c-6.85,2.739-19.521,8.903-19.521,8.903s1.714,3.083,7.192,5.479s10.272,3.767,10.272,3.767s19.863-9.589,29.109-14.726
			c9.246-5.138,31.164-20.89,39.724-24.998c8.562-4.109,17.465-7.191,17.465-7.191s-14.726,17.465-22.259,21.574
			c-7.534,4.109-27.396,14.039-33.562,18.834C349.717,313.182,337.731,319.688,337.731,319.688z"/>
	</g>
</g>
<g id="sabre_A">
	<g>
		<path fill="#FFFFFF" d="M416.839,391.946c-0.895,1.785-42.467-6.506-61.985-11.984c-19.52-5.48-117.12-40.754-196.912-98.971
			C78.149,222.774,25.754,139.558,15.138,114.558S0.412,73.806,0.07,66.272c-0.342-7.534,0.686-10.959,0.686-10.959
			s18.149,33.561,38.698,53.423c20.547,19.862,73.628,80.134,89.039,91.777c15.409,11.643,82.188,64.038,95.544,72.257
			c13.355,8.221,66.094,36.301,84.245,44.521c18.149,8.219,43.147,17.121,58.217,21.23c15.067,4.109,28.424,8.904,33.902,9.589
			c5.48,0.685,15.067,5.479,21.231,6.164s14.04,1.026,14.727,2.739c0.686,1.713-4.452,3.082-7.535,5.137
			c-3.082,2.055-17.465,8.219-29.793,5.822s-115.405-45.547-127.052-51.71c-11.644-6.165-63.695-35.272-69.859-40.411
			c-6.164-5.137-10.274-9.246-15.752-11.643c-5.479-2.397-9.589-2.74-9.589-2.74s12.671,13.355,20.548,18.836
			c7.877,5.479,42.807,28.765,68.49,41.777c25.686,13.015,70.202,32.877,94.859,41.438c24.656,8.562,48.627,16.438,51.709,19.521
			C415.467,386.125,418.209,389.206,416.839,391.946z"/>
		<path fill="#FFFFFF" d="M421.29,376.193c0,0,4.795,7.192,5.479,11.986c0.687,4.794,3.769,17.808-7.532,25.341
			c-11.301,7.535-14.042,10.273-19.863,8.562c-5.82-1.713-17.124-4.453-19.52-2.74c-2.398,1.713-5.821,8.562-2.398,11.986
			c3.427,3.424,12.329,8.561,29.794,6.506c17.466-2.055,39.384-22.26,41.096-35.957c1.714-13.698,0.343-15.754,2.741-18.151
			c2.396-2.396,14.724-15.067,21.914-26.711c7.191-11.644,6.509-18.149,16.781-23.286c10.273-5.137,11.985-2.057,11.985-4.453
			s-7.191-11.643-11.301-12.67c-4.11-1.027-18.493,1.37-23.286,5.822c-4.794,4.451-14.04,29.449-17.81,34.587
			c-3.767,5.137-14.725,12.671-17.807,14.383C428.482,373.111,421.29,376.193,421.29,376.193z"/>
		<path fill="#FFFFFF" d="M518.547,372.084c-4.261-1.655-12.328-0.342-21.574,0s-16.779-0.687-23.286,3.424
			c-6.507,4.109-10.96,18.15-10.96,18.15s24.659-0.343,33.562,1.713c8.903,2.055,17.808,1.026,21.916-5.138
			c4.109-6.164,6.509-11.646,4.797-14.728C521.285,372.426,524.712,374.48,518.547,372.084z"/>
		<path fill="#FFFFFF" d="M526.423,365.92v2.396c0,0,7.878,1.713,6.851,4.795s-9.246,20.205-6.851,25.685
			c2.397,5.479,8.562,9.588,17.124,6.506c8.561-3.082,16.438-10.615,14.384-22.943c-2.057-12.328-5.141-14.382-12.672-16.779
			C537.724,363.18,526.423,365.92,526.423,365.92z"/>
		<path fill="#FFFFFF" d="M515.121,402.219c0,0-1.026,4.451,1.37,8.221c2.398,3.768,11.985,5.479,11.985,5.479l2.741-3.426
			c0,0-3.77-2.053-7.534-4.793c-3.768-2.74-5.48-5.48-5.48-5.48H515.121z"/>
	</g>
</g>
<path id="nez" fill="#231F20" d="M308.963,174.488c-0.86,0.383-9.663-3.138-12.384-2.658c-0.987,0.173-1.379,2.178-2.562,2.88
	c-1.18,0.703-11.092,2.019-12.107,1.49c-1.017-0.529,0-9.932,2.738-17.465c2.739-7.533,6.088-18.935,6.85-20.205
	c0.759-1.271,4.453-3.767,4.453-3.767s3.882-1.376,5.137,0c1.252,1.376,4.793,15.411,6.848,20.889
	C309.99,161.131,309.823,174.105,308.963,174.488z"/>
<g id="yeux">
	<path fill="#231F20" d="M358.276,138.531c-1.711,3.768-13.013,10.959-20.204,11.644c-7.19,0.684-13.354-5.479-16.095-8.219
		c-2.74-2.74-6.85-5.137-10.616-16.096c-3.767-10.958,0.343-17.807,2.055-20.205c1.715-2.398,4.109-4.794,4.109-4.794
		s2.055-1.027,3.425-2.397c1.369-1.37,6.506-4.452,12.67-4.452s17.124,3.082,21.574,14.725
		C359.647,120.38,359.99,134.764,358.276,138.531z"/>
	<path fill="#231F20" d="M279.453,135.659c-1.281,1.44-4.161,4.801-5.763,6.242c-1.6,1.441-8.219,4.85-14.383,6.22
		c-6.164,1.369-14.041,0.342-17.123-2.397c-3.082-2.739-4.451-12.67-4.794-22.26c-0.343-9.59,4.452-20.206,8.904-23.288
		s7.876-6.849,15.752-6.506c7.875,0.343,18.492,4.795,21.231,9.247s5.138,15.068,3.427,19.52c-1.714,4.452-3.265,7.801-3.73,8.582
		C282.508,131.799,280.734,134.217,279.453,135.659z"/>
</g>
</svg>
