<?xml version="1.0" encoding="utf-8"?>
<!-- Generator: Adobe Illustrator 16.0.0, SVG Export Plug-In . SVG Version: 6.00 Build 0)  -->
<!DOCTYPE svg PUBLIC "-//W3C//DTD SVG 1.1//EN" "http://www.w3.org/Graphics/SVG/1.1/DTD/svg11.dtd">
<svg version="1.1" id="Layer_1" xmlns="http://www.w3.org/2000/svg" xmlns:xlink="http://www.w3.org/1999/xlink" x="0px" y="0px"
	 width="841.89px" height="589.412px" viewBox="0 0 841.89 589.412" enable-background="new 0 0 841.89 589.412"
	 xml:space="preserve">
<g id="drapeau">
	<rect x="-0.555" y="-2.794" fill="#231F20" width="842.445" height="592.206"/>
</g>
<g id="crâne">
	<g>
		<path fill="#FFFFFF" d="M499.779,276.874c0,0-13.334,1.667-16.334,9.333s-3.332,42-20.332,45s-35.002,4.667-45.667,0
			c-10.667-4.667-20.333-14-20-22s-0.667-22.333-5.333-27c-4.666-4.667-13-8-13-8s-1.333,6.333-0.667,10s1.667,36.001,6.667,42.667
			s12.667,21.666,20.667,25.333s21.666,6.333,31,6.333s33.334,1,44-14.333c10.668-15.333,17-34.667,16-44.667
			s3.334-7.667,3.668-10.667C500.779,285.873,501.779,276.874,499.779,276.874z"/>
		<polygon fill="#FFFFFF" points="456.445,317.874 451.779,318.54 452.445,328.54 455.445,328.54 459.445,325.54 459.445,320.874 		
			"/>
		<polygon fill="#FFFFFF" points="440.111,318.207 436.111,318.54 434.445,321.874 435.111,329.207 441.111,328.207 
			442.445,326.207 443.445,324.874 		"/>
		<polygon fill="#FFFFFF" points="428.111,317.54 422.445,317.874 423.111,324.54 427.445,328.207 430.111,323.54 		"/>
		<polygon fill="#FFFFFF" points="417.111,320.874 414.778,317.54 412.111,315.874 410.778,318.874 412.778,324.54 418.445,325.874 
			419.445,322.207 		"/>
		<polygon fill="#FFFFFF" points="414.111,300.874 410.111,294.541 411.111,292.207 412.111,287.874 418.111,288.207 
			419.111,294.541 419.445,300.207 		"/>
		<polygon fill="#FFFFFF" points="425.111,301.54 422.779,300.874 422.111,296.874 425.111,289.541 427.779,289.541 430.111,295.54 
			430.445,300.874 		"/>
		<polygon fill="#FFFFFF" points="435.779,302.207 432.445,295.874 435.779,289.541 441.111,289.541 441.445,295.54 
			441.779,301.207 		"/>
		<polygon fill="#FFFFFF" points="446.111,302.54 446.779,289.207 450.779,289.541 453.111,295.54 453.111,301.54 		"/>
		<polygon fill="#FFFFFF" points="462.111,302.54 458.445,296.54 458.779,288.874 462.445,287.874 463.111,289.874 465.445,290.541 
			465.445,299.207 		"/>
		<path fill="#FFFFFF" d="M530.445,151.541c-0.434-1.694,1.678-4.088,1.334-6c-0.989-5.507-16.334-32.667-28-41
			c-11.668-8.333-30.92-17.036-34.668-17.333s-17.24-0.741-20.574-1.075s-14.092,0.075-28.758,2.741
			c-14.667,2.666-33.667,11.333-37,14s-11.667,11-11.667,11l-0.333,2.333c0,0-6.667,6-14,18.667s-7.333,35-7.333,42.667
			s4.667,27.667,4.667,27.667l4.667,9.667h3l1.333-14.667c0,0-0.333-3.667-1.333-10s0-19,3-29.667s6.667-14.333,11.667-21.333
			s9.333-11.333,9.333-11.333l2.471,1.408c0,0-3.805,8.259-5.138,11.259s-7,21-11.667,27.666s-2,44-2.333,48s-0.667,5.667-2.333,7
			s-11.441,4.381-12.667,5s-2,6.667-2,9.667s3.667,7.333,13,12s18,7.333,24,9.667s12.667,15.667,15.667,19.333
			s18,5.667,30.667,7.667c12.666,2,25.795-3.022,27.734-3.189s5.264,0.523,6.598,0.856c1.332,0.333,7.797-6.464,8.669-7.555
			s1.331-3.111,4.331-6.778s14-10.667,24-14s15.953-9.484,17.334-11.333s2.471-10.105,2.004-11.819
			c-0.357-1.312-3.428-3.117-6.075-4.05s-8.244-3.166-9.263-4.465s-1.152-5.981-1.486-10.647s1.59-24.89,2.82-25.686
			s3.698,1.058,4.334,2s1.34,24.532,2,25.667s5.332-3,7.666-4.333c2.332-1.333,3.666-12.333,4.334-15.333
			c0.666-3,2.991-36.215,2-42.333C532.298,152.628,530.878,153.235,530.445,151.541z"/>
	</g>
</g>
<g id="sabre_B">
	<g>
		<path fill="#FFFFFF" d="M348.445,486.54c0,0,4.667,4.667,4.667,7.667s-6.334,12.667-19.667,13s-29-10.001-37.667-17.334
			s-11-20.666-11.333-25.666s1.667-11.333-0.667-13s-16.667-15.668-18.667-21.334s-9.333-25-15.333-28.333s-13-4.332-13.333-6.666
			s5-13,14.667-13.667s16.333,1.667,21,23.667s19,28,25.667,32.333s12.333,8,12,10s-3.667,12.334-3,17.667s7,20,15.667,22
			S337.778,482.873,348.445,486.54z"/>
		<path fill="#FFFFFF" d="M270.112,458.54c-1.901,1.9-16-0.334-22,0s-24,3.001-27.333-0.666s-6.333-11-7-13.667s-4-6.333,1.333-8
			s21.333-2.333,30.667-2s17,4.999,21.667,12.333S272.112,456.54,270.112,458.54z"/>
		<path fill="#FFFFFF" d="M218.445,464.54c-1.617,0.971-10.333,4.667-10.333,6.667s-6,3.999-3.667,6.333s9.333-1,11-3
			s4.667-7,5.333-8.333S220.111,463.54,218.445,464.54z"/>
		<path fill="#FFFFFF" d="M205.445,444.874c0.789,4.142,5,14.334,1.667,18s-11,7.999-17,3.666s-20.333-18.334-10.333-30
			s23.333-9,26-7s2.667,2,2.667,2s-2.333,3.667-2.667,5.667C205.445,439.207,204.111,437.874,205.445,444.874z"/>
		<path fill="#FFFFFF" d="M388.112,422.207c0,0-18.667,4.001-28,7.667s-30.667,10.666-40,8.333s-23-12.667-23-12.667
			s13.667-2.666,26-5.333s42.667-10.667,45.667-10.667s5.667,2,11.333,5S388.779,420.54,388.112,422.207z"/>
		<path fill="#FFFFFF" d="M403.778,426.874c-3.669-0.307-41,10.332-47.667,12.666s-29.333,6.001-33,9.334s-8.333,8.332-8.333,10.666
			s0.333,1.667,5,1.667s79.333-16,87.333-18s16.333-2.667,16.333-5s-2.667-3.001-8.333-5.667S407.778,427.208,403.778,426.874z"/>
		<path fill="#FFFFFF" d="M478.779,397.207c0,0,6,2.333,10.334,4.333c4.332,2,6.666,4,12.666,3s23-10.333,30.334-15.333
			c7.332-5,80-55.001,107-81.667s46.332-51,53-60.333c6.666-9.333,30.332-56.333,34-65.667c3.666-9.334,8.666-27.333,8.666-30
			s-1.334-6-1.334-6s-24.332,32.333-30.666,40s-49,69-122.666,119.667c-73.668,50.667-104.666,67.001-111.334,69.667
			c-6.666,2.666-19,8.666-19,8.666s1.668,3.001,7,5.334c5.334,2.333,10,3.666,10,3.666s19.334-9.333,28.334-14.333
			s30.334-20.333,38.666-24.333c8.334-4,17-7,17-7s-14.334,17-21.666,21c-7.334,4-26.668,13.666-32.668,18.333
			S478.779,397.207,478.779,397.207z"/>
	</g>
</g>
<g id="sabre_A">
	<g>
		<path fill="#FFFFFF" d="M555.779,467.54c-0.869,1.738-41.334-6.332-60.334-11.666s-114-39.668-191.667-96.334
			s-128.667-137.666-139-162s-14.334-39.667-14.667-47s0.667-10.667,0.667-10.667s17.667,32.667,37.667,52s71.667,78,86.667,89.333
			s80,62.333,93,70.333s64.333,35.334,82.001,43.334c17.666,8,41.998,16.666,56.666,20.666c14.666,4,27.666,8.668,33,9.334
			s14.666,5.334,20.666,6s13.666,0.999,14.334,2.666c0.666,1.667-4.334,3-7.334,5s-17,8-29,5.667s-112.332-44.333-123.667-50.333
			c-11.334-6-62-34.334-68-39.334s-10-9-15.333-11.333s-9.333-2.667-9.333-2.667s12.333,13.001,20,18.334
			s41.667,27.999,66.667,40.666c25,12.667,68.333,32.001,92.333,40.334s47.332,16,50.332,19S557.113,464.873,555.779,467.54z"/>
		<path fill="#FFFFFF" d="M560.113,452.207c0,0,4.666,7.001,5.332,11.667c0.668,4.666,3.668,17.332-7.332,24.666
			s-13.668,10.001-19.334,8.334s-16.668-4.334-19-2.667c-2.334,1.667-5.666,8.334-2.334,11.667c3.334,3.333,12,8.333,29,6.333
			s38.334-21.667,40-35c1.668-13.333,0.334-15.334,2.668-17.667c2.332-2.333,14.332-14.667,21.332-26s6.334-17.666,16.334-22.666
			s11.666-2.001,11.666-4.334s-7-11.333-11-12.333s-18,1.334-22.666,5.667s-13.666,28.666-17.334,33.666
			c-3.666,5-14.332,12.333-17.332,14S560.113,452.207,560.113,452.207z"/>
		<path fill="#FFFFFF" d="M654.779,448.207c-4.146-1.611-12-0.333-21,0s-16.332-0.667-22.666,3.333s-10.668,17.667-10.668,17.667
			s24.002-0.333,32.668,1.667s17.332,1,21.332-5s6.334-11.334,4.668-14.334C657.445,448.54,660.779,450.54,654.779,448.207z"/>
		<path fill="#FFFFFF" d="M662.445,442.207v2.333c0,0,7.668,1.667,6.668,4.667s-9,19.667-6.668,25
			c2.334,5.333,8.334,9.333,16.668,6.333c8.332-3,16-10.333,14-22.333s-5.002-13.999-12.334-16.333
			C673.445,439.54,662.445,442.207,662.445,442.207z"/>
		<path fill="#FFFFFF" d="M651.445,477.54c0,0-1,4.333,1.334,8s11.666,5.334,11.666,5.334l2.668-3.334c0,0-3.668-1.999-7.334-4.666
			s-5.334-5.334-5.334-5.334H651.445z"/>
	</g>
</g>
<path id="nez" fill="#231F20" d="M450.777,255.874c-0.838,0.373-9.405-3.054-12.054-2.587c-0.961,0.169-1.343,2.12-2.492,2.804
	s-10.797,1.965-11.786,1.45s0-9.667,2.666-17s5.927-18.431,6.666-19.667s4.334-3.667,4.334-3.667s3.78-1.34,5,0
	s4.666,15,6.666,20.333S451.615,255.501,450.777,255.874z"/>
<g id="yeux">
	<path fill="#231F20" d="M498.777,220.875c-1.666,3.667-12.666,10.667-19.666,11.333s-13-5.333-15.666-8
		c-2.668-2.667-6.668-5-10.334-15.667s0.334-17.333,2-19.667c1.668-2.334,4-4.667,4-4.667s2-1,3.334-2.333
		c1.332-1.333,6.332-4.333,12.332-4.333s16.668,3,21,14.333C500.111,203.207,500.445,217.208,498.777,220.875z"/>
	<path fill="#231F20" d="M422.053,218.079c-1.247,1.402-4.05,4.673-5.608,6.076s-8,4.721-14,6.054s-13.667,0.333-16.667-2.333
		s-4.333-12.333-4.667-21.667s4.333-19.667,8.667-22.667s7.667-6.667,15.333-6.333s17.999,4.667,20.667,9
		c2.666,4.333,5,14.667,3.334,19c-1.668,4.333-3.177,7.593-3.631,8.353S423.3,216.676,422.053,218.079z"/>
</g>
</svg>
