<?xml version="1.0" encoding="UTF-8"?>
<svg xmlns="http://www.w3.org/2000/svg" xmlns:xlink="http://www.w3.org/1999/xlink" enable-background="new 0 0 401.582 295.167" height="295.167px" version="1.1" viewBox="0 0 401.582 295.167" width="401.582px" x="0px" xml:space="preserve" y="0px">
  <path d="M277.753,261.24c-0.597,1.19-28.271-4.336-41.271-7.988     c-12.998-3.646-77.983-27.162-131.114-65.965C52.237,148.484,17.349,93.019,10.281,76.356     C3.212,59.692,0.475,49.193,0.247,44.172c-0.228-5.022,0.457-7.305,0.457-7.305s12.085,22.37,25.771,35.608     c13.681,13.238,49.021,53.411,59.275,61.171c10.271,7.76,54.729,42.682,63.619,48.16c8.896,5.479,44.008,24.195,56.104,29.674     c12.086,5.479,28.729,11.412,38.764,14.15c10.033,2.74,18.93,5.935,22.574,6.392c3.646,0.456,10.022,3.651,14.139,4.106     c4.105,0.459,9.35,0.687,9.807,1.828c0.457,1.141-2.964,2.055-5.02,3.424c-2.051,1.369-11.629,5.478-19.838,3.879     c-8.207-1.596-76.84-30.356-84.604-34.465c-7.753-4.108-42.402-23.51-46.517-26.938c-4.104-3.424-6.841-6.162-10.488-7.76     c-3.646-1.601-6.385-1.826-6.385-1.826s8.438,8.899,13.682,12.558c5.245,3.648,28.513,19.172,45.604,27.846     c17.104,8.685,46.745,21.914,63.163,27.619c16.418,5.707,32.379,10.955,34.433,13.021     C276.841,257.36,278.665,259.414,277.753,261.24z" fill="#B82025" id="sabre_4_"/>
</svg>
