<?xml version="1.0" encoding="UTF-8"?>
<svg xmlns="http://www.w3.org/2000/svg" xmlns:xlink="http://www.w3.org/1999/xlink" enable-background="new 0 0 401.582 295.167" height="295.167px" version="1.1" viewBox="0 0 401.582 295.167" width="401.582px" x="0px" xml:space="preserve" y="0px">
  <path d="M225.079,213.08c0,0,4.104,1.604,7.067,2.967c2.963,1.369,4.562,2.738,8.666,2.062     c4.104-0.688,15.729-7.07,20.75-10.499c5.018-3.433,54.727-37.661,73.193-55.922c18.47-18.259,31.688-34.923,36.257-41.314     c4.562-6.39,20.748-38.575,23.257-44.966c2.512-6.391,5.931-18.716,5.931-20.543c0-1.826-0.911-4.108-0.911-4.108     s-16.646,22.141-20.979,27.39c-4.332,5.25-33.521,47.249-83.909,81.938c-50.396,34.688-71.604,45.879-76.162,47.705     c-4.562,1.826-12.997,5.938-12.997,5.938s1.143,2.059,4.788,3.646c3.646,1.604,6.843,2.512,6.843,2.512     s13.229-6.391,19.382-9.811c6.155-3.433,20.75-13.932,26.45-16.66c5.698-2.738,11.628-4.793,11.628-4.793     s-9.807,11.639-14.82,14.379c-5.018,2.729-18.23,9.354-22.348,12.553C233.061,208.744,225.079,213.08,225.079,213.08z" fill="#B82025" id="sabre_5_"/>
</svg>
