<?xml version="1.0" encoding="utf-8"?>
<!-- Generator: Adobe Illustrator 16.0.0, SVG Export Plug-In . SVG Version: 6.00 Build 0)  -->
<!DOCTYPE svg PUBLIC "-//W3C//DTD SVG 1.1//EN" "http://www.w3.org/Graphics/SVG/1.1/DTD/svg11.dtd">
<svg version="1.1" id="Layer_1" xmlns="http://www.w3.org/2000/svg" xmlns:xlink="http://www.w3.org/1999/xlink" x="0px" y="0px"
	 width="500px" height="500px" viewBox="0 0 500 500" enable-background="new 0 0 500 500" xml:space="preserve">
<path d="M142.5,64.5c-30.494,1.452-62,83-42,149s46,168,77,133s65-27,0-83s-90-92-40-116S184.5,62.5,142.5,64.5z"/>
<path d="M313.5,133.5c-44.807,12.546-43,76-10,102s71,17,90-22s6-75,0-97s-36-81-39-23s19,142-4,111S338.5,126.5,313.5,133.5z"/>
<path d="M298.5,461.5c-9.701,2.426-77-23-95-64s-30.813-52.627-1.907-72.313s70.907,19.552,72.907,28.433s2.482,1.881,4.741-7.119
	s-11.741-53,27.259-42s39,71,28,95S310.5,458.5,298.5,461.5z"/>
</svg>
