<?xml version="1.0" encoding="utf-8"?>
<!-- Generator: Adobe Illustrator 16.0.0, SVG Export Plug-In . SVG Version: 6.00 Build 0)  -->
<!DOCTYPE svg PUBLIC "-//W3C//DTD SVG 1.1//EN" "http://www.w3.org/Graphics/SVG/1.1/DTD/svg11.dtd">
<svg version="1.1" id="Layer_1" xmlns="http://www.w3.org/2000/svg" xmlns:xlink="http://www.w3.org/1999/xlink" x="0px" y="0px"
	 width="400px" height="400px" viewBox="0 0 400 400" enable-background="new 0 0 400 400" xml:space="preserve">
<g id="Calque_1" display="none">
	
		<polygon display="inline" fill="none" stroke="#191919" stroke-width="0.5" stroke-linejoin="round" stroke-miterlimit="10" points="
		171,190.9 199.7,191 171.3,242.2 	"/>
	
		<polygon display="inline" fill="none" stroke="#191919" stroke-width="0.5" stroke-linejoin="round" stroke-miterlimit="10" points="
		171.4,241.9 199.4,223.1 199.6,190.7 	"/>
	
		<polygon display="inline" fill="none" stroke="#191919" stroke-width="0.5" stroke-linejoin="round" stroke-miterlimit="10" points="
		199.7,191 199.7,178.9 184.4,167.3 171.2,169.9 171.1,191 	"/>
	
		<polyline display="inline" fill="none" stroke="#191919" stroke-width="0.5" stroke-linejoin="round" stroke-miterlimit="10" points="
		185,167.6 199.7,173.9 199.6,179.5 184.3,167.3 	"/>
	
		<polygon display="inline" fill="none" stroke="#191919" stroke-width="0.5" stroke-linejoin="round" stroke-miterlimit="10" points="
		171.3,169.8 163.3,184.5 171.1,191 	"/>
	
		<polygon display="inline" fill="none" stroke="#191919" stroke-width="0.5" stroke-linejoin="round" stroke-miterlimit="10" points="
		199.5,190.8 199.3,223.1 229.7,242.7 	"/>
	
		<polygon display="inline" fill="none" stroke="#191919" stroke-width="0.5" stroke-linejoin="round" stroke-miterlimit="10" points="
		199.6,191 229.5,242.5 229.5,191 	"/>
	
		<polygon display="inline" fill="none" stroke="#191919" stroke-width="0.5" stroke-linejoin="round" stroke-miterlimit="10" points="
		199.7,191 199.7,179.5 217.5,166.5 229.5,191 	"/>
	
		<polygon display="inline" fill="none" stroke="#191919" stroke-width="0.5" stroke-linejoin="round" stroke-miterlimit="10" points="
		217.5,166.5 229.9,169.5 237.2,184.6 229.5,191 	"/>
	
		<polygon display="inline" fill="none" stroke="#191919" stroke-width="0.5" stroke-linejoin="round" stroke-miterlimit="10" points="
		199.6,179.5 199.6,173.9 217.5,166.5 	"/>
	
		<polygon display="inline" fill="none" stroke="#191919" stroke-width="0.5" stroke-linejoin="round" stroke-miterlimit="10" points="
		237.1,184.4 244.8,198 268.7,175.8 	"/>
	
		<polygon display="inline" fill="none" stroke="#191919" stroke-width="0.5" stroke-linejoin="round" stroke-miterlimit="10" points="
		256.3,166.7 260.5,103.2 265.2,138.3 278,151.3 268.7,175.8 	"/>
	
		<polygon display="inline" fill="none" stroke="#191919" stroke-width="0.5" stroke-linejoin="round" stroke-miterlimit="10" points="
		260.5,102.9 265.2,138.3 268.1,137.8 	"/>
	
		<polyline display="inline" fill="none" stroke="#191919" stroke-width="0.5" stroke-linejoin="round" stroke-miterlimit="10" points="
		278,151.3 342.8,137.2 379.6,119.9 379.6,114 343.9,129.1 328,127.2 265.2,138.3 	"/>
	
		<polygon display="inline" fill="none" stroke="#191919" stroke-width="0.5" stroke-linejoin="round" stroke-miterlimit="10" points="
		328,127.2 328,95.3 343.9,129.2 	"/>
	
		<polygon display="inline" fill="none" stroke="#191919" stroke-width="0.5" stroke-linejoin="round" stroke-miterlimit="10" points="
		379.6,119.9 376.1,53.7 391.1,114.5 	"/>
	
		<polygon display="inline" fill="none" stroke="#191919" stroke-width="0.5" stroke-linejoin="round" stroke-miterlimit="10" points="
		229.5,191 243.5,208.8 244.8,198 237.2,184.6 	"/>
	
		<polygon display="inline" fill="none" stroke="#191919" stroke-width="0.5" stroke-linejoin="round" stroke-miterlimit="10" points="
		229.5,191 229.5,242.5 243.5,256.7 243.5,208.8 	"/>
	
		<polygon display="inline" fill="none" stroke="#191919" stroke-width="0.5" stroke-linejoin="round" stroke-miterlimit="10" points="
		294.2,159.6 270.3,171.3 275,159.1 	"/>
	
		<polygon display="inline" fill="none" stroke="#191919" stroke-width="0.5" stroke-linejoin="round" stroke-miterlimit="10" points="
		259.1,184.7 294.4,165.6 294.2,159.6 270.3,171.3 268.7,175.8 	"/>
	
		<polygon display="inline" fill="none" stroke="#191919" stroke-width="0.5" stroke-linejoin="round" stroke-miterlimit="10" points="
		294.2,159.6 313.5,168.1 289.3,168.3 294.4,165.6 	"/>
	
		<polygon display="inline" fill="none" stroke="#191919" stroke-width="0.5" stroke-linejoin="round" stroke-miterlimit="10" points="
		244.1,202.9 264.7,203.9 305,168.2 289.4,168.3 259.2,184.6 244.8,198 	"/>
	
		<polygon display="inline" fill="none" stroke="#191919" stroke-width="0.5" stroke-linejoin="round" stroke-miterlimit="10" points="
		274.9,159.3 344.4,142.2 391.1,114.5 343.1,137.1 278,151.3 	"/>
	<path display="inline" fill="none" stroke="#191919" stroke-width="0.5" stroke-linejoin="round" stroke-miterlimit="10" d="
		M199.2,223l0.199,31.5c0,0,16.101,7.2,16.7,7c0.601-0.2,13.3-19.1,13.3-19.1L199.2,223z"/>
	
		<polygon display="inline" fill="none" stroke="#191919" stroke-width="0.5" stroke-linejoin="round" stroke-miterlimit="10" points="
		202,281.1 243.5,256.7 229.4,242.4 	"/>
	
		<polygon display="inline" fill="none" stroke="#191919" stroke-width="0.5" stroke-linejoin="round" stroke-miterlimit="10" points="
		202.3,280.9 216,261.4 199.5,254.4 199.5,285.9 	"/>
	
		<polygon display="inline" fill="none" stroke="#191919" stroke-width="0.5" stroke-linejoin="round" stroke-miterlimit="10" points="
		199.5,285.9 199.5,323.9 240.7,295.8 240.8,258.4 202.3,280.9 	"/>
	
		<polygon display="inline" fill="none" stroke="#191919" stroke-width="0.5" stroke-linejoin="round" stroke-miterlimit="10" points="
		199.5,323.9 199.5,336.6 240.6,300.2 240.7,295.6 	"/>
	
		<polygon display="inline" fill="none" stroke="#191919" stroke-width="0.5" stroke-linejoin="round" stroke-miterlimit="10" points="
		171.3,241.9 199.2,223 199.5,254.4 183.3,262.4 	"/>
	
		<polygon display="inline" fill="none" stroke="#191919" stroke-width="0.5" stroke-linejoin="round" stroke-miterlimit="10" points="
		183.8,262.1 199.5,254.4 199.5,285.8 	"/>
	
		<polygon display="inline" fill="none" stroke="#191919" stroke-width="0.5" stroke-linejoin="round" stroke-miterlimit="10" points="
		171.4,241.9 161.8,259.4 193.8,277.1 	"/>
	
		<polygon display="inline" fill="none" stroke="#191919" stroke-width="0.5" stroke-linejoin="round" stroke-miterlimit="10" points="
		171.1,191 163.3,184.5 157.1,200.5 158.6,204.3 161.8,259.4 171.4,241.9 	"/>
	
		<polygon display="inline" fill="none" stroke="#191919" stroke-width="0.5" stroke-linejoin="round" stroke-miterlimit="10" points="
		145.3,168.1 131.1,177.8 163.3,184.5 171.3,169.8 	"/>
	
		<polygon display="inline" fill="none" stroke="#191919" stroke-width="0.5" stroke-linejoin="round" stroke-miterlimit="10" points="
		133.2,139.5 138.3,104.6 145.3,168.1 144,169.1 136.3,140.3 	"/>
	
		<polygon display="inline" fill="none" stroke="#191919" stroke-width="0.5" stroke-linejoin="round" stroke-miterlimit="10" points="
		144,169.1 131.1,177.8 123.1,154.1 60.1,142 58.3,133.1 133.2,139.5 136.3,140.3 	"/>
	
		<polygon display="inline" fill="none" stroke="#191919" stroke-width="0.5" stroke-linejoin="round" stroke-miterlimit="10" points="
		58.2,133.1 73.9,99.9 73.7,134.4 	"/>
	
		<polygon display="inline" fill="none" stroke="#191919" stroke-width="0.5" stroke-linejoin="round" stroke-miterlimit="10" points="
		20.8,121.9 21,115.5 49.6,130.3 59.7,130.2 58.3,133.1 60.1,142 	"/>
	
		<polygon display="inline" fill="none" stroke="#191919" stroke-width="0.5" stroke-linejoin="round" stroke-miterlimit="10" points="
		20.8,121.9 9,121.4 22.6,60.6 	"/>
	
		<polygon display="inline" fill="none" stroke="#191919" stroke-width="0.5" stroke-linejoin="round" stroke-miterlimit="10" points="
		9,121.4 59,146.8 125.9,162.3 123.1,154.1 60.1,142 20.7,121.8 	"/>
	
		<polygon display="inline" fill="none" stroke="#191919" stroke-width="0.5" stroke-linejoin="round" stroke-miterlimit="10" points="
		131.1,177.8 135.9,188.3 157.1,200.5 163.4,184.4 	"/>
	
		<polygon display="inline" fill="none" stroke="#191919" stroke-width="0.5" stroke-linejoin="round" stroke-miterlimit="10" points="
		109.1,163.9 129.8,174.1 126.3,163.8 	"/>
	
		<polygon display="inline" fill="none" stroke="#191919" stroke-width="0.5" stroke-linejoin="round" stroke-miterlimit="10" points="
		109.1,163.9 108.1,170.2 136,188.3 129.7,173.9 	"/>
	
		<polygon display="inline" fill="none" stroke="#191919" stroke-width="0.5" stroke-linejoin="round" stroke-miterlimit="10" points="
		109.1,163.9 92.6,171.9 92.8,174.9 114,173.9 108.2,170.2 	"/>
	
		<polygon display="inline" fill="none" stroke="#191919" stroke-width="0.5" stroke-linejoin="round" stroke-miterlimit="10" points="
		101.6,174.5 141.9,207.6 158.6,204.3 157.1,200.5 136.1,188.3 113.9,173.9 	"/>
	
		<polygon display="inline" fill="none" stroke="#191919" stroke-width="0.5" stroke-linejoin="round" stroke-miterlimit="10" points="
		167.6,262.4 161.7,294.2 199.5,323.9 199.5,285.8 193.8,277.1 	"/>
	
		<polygon display="inline" fill="none" stroke="#191919" stroke-width="0.5" stroke-linejoin="round" stroke-miterlimit="10" points="
		199.5,323.9 199.5,336.6 161.4,300.3 161.7,294.2 	"/>
	
		<polygon display="inline" fill="none" stroke="#191919" stroke-width="0.5" stroke-linejoin="round" stroke-miterlimit="10" points="
		229.6,169.4 256.3,166.6 268.8,175.8 236.9,184.5 	"/>
</g>
<g id="global_1_">
	<path id="global" fill="#E5201C" stroke="#191919" stroke-width="0.5" stroke-linejoin="round" stroke-miterlimit="10" d="
		M391,114.5l-15-60.8l3.199,60.4l-35.3,15l0,0L328,95.3v31.8l0,0l-60,10.7l-7.601-34.9l4.7,35.4l-4.7-35.1l-4.199,63.4l-26.601,2.8
		l-12.2-3l-17.8,13.1l0,0l17.8-13l-17.8,7.4l-14.7-6.3l-0.5-0.3l-0.1-0.1l0,0l0,0l0,0l-13.1,2.6l0,0l-25.9-1.7l-7-63.6l-5.1,34.9
		l-59.5-5.1L73.9,99.7L59.6,130l-10,0.1L21,115.3l1.6-54.9l-13.7,61l50,25.4l66.801,15.6l0.5,1.4L109,164l-16.5,8l0.1,3l8.9-0.4
		l40.2,33.1l16.8-3.3l3.1,55.1l5.8,3.2l-5.899,31.6l-0.3,6l38.1,36.4l41.1-36.5l0.101-4.4l0,0l0.1-37.399l-15.1,8.8l17.8-10.5v-48
		l0.7-5.8l20.5,0.899l40.3-35.7l8.5-0.1l-19.2-8.6l-18.6-0.5l68.699-16.9L391,114.5z"/>
</g>
</svg>
