<?xml version="1.0" encoding="utf-8"?>
<!-- Generator: Adobe Illustrator 16.0.0, SVG Export Plug-In . SVG Version: 6.00 Build 0)  -->
<!DOCTYPE svg PUBLIC "-//W3C//DTD SVG 1.1//EN" "http://www.w3.org/Graphics/SVG/1.1/DTD/svg11.dtd">
<svg version="1.1" id="Layer_1" xmlns="http://www.w3.org/2000/svg" xmlns:xlink="http://www.w3.org/1999/xlink" x="0px" y="0px"
	 width="384.333px" height="285.833px" viewBox="0 0 384.333 285.833" enable-background="new 0 0 384.333 285.833"
	 xml:space="preserve">
<g id="global_1_">
	<path id="global" fill="#E32526" stroke="#191919" stroke-width="0.5" stroke-linejoin="round" stroke-miterlimit="10" d="
		M384.167,62.334l-15-60.8l3.199,60.4l-35.301,15l0,0l-15.898-33.8v31.8l0,0l-60,10.7l-7.601-34.9l4.7,35.4l-4.7-35.1l-4.199,63.4
		l-26.601,2.8l-12.2-3l-17.8,13.1l0,0l17.8-13l-17.8,7.4l-14.7-6.3l-0.5-0.3l-0.1-0.1l0,0l0,0l0,0l-13.1,2.6l0,0l-25.9-1.7l-7-63.6
		l-5.1,34.9l-59.5-5.1l0.199-34.6l-14.3,30.3l-10,0.1l-28.6-14.8l1.6-54.9l-13.7,61l50,25.4l66.801,15.6l0.5,1.4l-17.2,0.2l-16.5,8
		l0.1,3l8.9-0.4l40.2,33.1l16.8-3.3l3.1,55.1l5.8,3.2l-5.899,31.6l-0.3,6l38.1,36.4l41.1-36.5l0.101-4.401l0,0l0.1-37.399l-15.1,8.8
		l17.8-10.5v-48l0.7-5.8l20.5,0.899l40.299-35.7l8.5-0.1l-19.199-8.6l-18.6-0.5l68.7-16.9L384.167,62.334z"/>
</g>
</svg>
