<?xml version="1.0" encoding="utf-8"?>
<!-- Generator: Adobe Illustrator 16.0.0, SVG Export Plug-In . SVG Version: 6.00 Build 0)  -->
<!DOCTYPE svg PUBLIC "-//W3C//DTD SVG 1.1//EN" "http://www.w3.org/Graphics/SVG/1.1/DTD/svg11.dtd">
<svg version="1.1" id="Layer_1" xmlns="http://www.w3.org/2000/svg" xmlns:xlink="http://www.w3.org/1999/xlink" x="0px" y="0px"
	 width="595.28px" height="841.89px" viewBox="0 0 595.28 841.89" enable-background="new 0 0 595.28 841.89" xml:space="preserve">
<polygon fill="#FFDE11" stroke="#010101" stroke-width="15" stroke-miterlimit="10" points="448.14,304.445 307.14,435.445 
	395.14,669.445 543.14,585.445 "/>
<polygon fill="#FFDE11" stroke="#010101" stroke-width="15" stroke-miterlimit="10" points="449.14,414.445 392.14,485.445 
	402.14,585.445 477.14,530.445 "/>
<path fill="#FFDE11" stroke="#010101" stroke-width="15" stroke-miterlimit="10" d="M290.14,644.445l-114,69l74,79l119-11
	L290.14,644.445z M254.14,716.445l34-8l24,51l-48,1L254.14,716.445z"/>
<rect x="42.14" y="483.445" fill="#FFDE11" stroke="#010101" stroke-width="15" stroke-miterlimit="10" width="429" height="66"/>
<path fill="#FFDE11" stroke="#010101" stroke-width="15" stroke-miterlimit="10" d="M192.141,421.445c-60.978,2.03-72,34-79,68
	s30,133,68,102S252.141,419.445,192.141,421.445z"/>
<polygon fill="#FFDE11" stroke="#010101" stroke-width="15" stroke-miterlimit="10" points="399.14,427.445 329.14,504.445 
	459.14,608.445 "/>
<rect x="36.14" y="65.445" fill="#FFDE11" stroke="#010101" stroke-width="15" stroke-miterlimit="10" width="172" height="115"/>
<circle fill="#FFDE11" stroke="#010101" stroke-width="15" stroke-miterlimit="10" cx="370.14" cy="124.445" r="75"/>
<polygon id="étoile" fill="#FFDE11" stroke="#010101" stroke-width="15" stroke-miterlimit="10" points="253.14,121.441 
	280.756,206.435 370.124,206.435 297.823,258.963 325.439,343.957 253.14,291.428 180.84,343.957 208.455,258.963 136.156,206.435 
	225.523,206.435 "/>
<ellipse fill="#FFDE11" stroke="#010101" stroke-width="15" stroke-miterlimit="10" cx="486.14" cy="122.445" rx="75" ry="45"/>
</svg>
